/* XPM */
static char * neko_xpm[] = {
"32 32 3 1",
" 	c None",
".	c #000000",
"a c #ffffff",
"                                ",
"                                ",
"                                ",
"                                ",
"      ..                ..      ",
"     .aa.              .aa.     ",
"     .aaa.            .aaa.     ",
"     .aaaa.          .aaaa.     ",
"     .aaaa.          .aaaa.     ",
"    .aaaaaa.        .aaaaaa.    ",
"    .aaaaaa.        .aaaaaa.    ",
"    .aaaaaaa........aaaaaaa.    ",
"   ..aaaaaaaaaaaaaaaaaaaaaa..   ",
"  .aaaaaaaaaaaaaaaaaaaaaaaaaa.  ",
"  .aaaaaa..aaaaaaaaaa..aaaaaa.  ",
" .aaaaaaa..aaaaaaaaaa..aaaaaaa. ",
" .aaaaaaa..aaaaaaaaaa..aaaaaaa. ",
" .aaaaaaa..aaaaaaaaaa..aaaaaaa. ",
" .aaaaaaa..aaaaaaaaaa..aaaaaaa. ",
" .aaaaaaaaaaaaaaaaaaaaaaaaaaaa. ",
" .aaaaaaaaaaaaaaaaaaaaaaaaaaaa. ",
" ....aaaaaaaaa....aaaaaaaaa.... ",
" .aaaaaaaaaaaa....aaaaaaaaaaaa. ",
"  .aaaaa.aaaaaa..aaaaaa.aaaaa.  ",
"  ...aaa.aaaaa.aa.aaaaa.aaa...  ",
"  .aaaaaa.....aaaa.....aaaaaa.  ",
"   .aaaaaaaaaaaaaaaaaaaaaaaa.   ",
"   .aaaaaaaaaaaaaaaaaaaaaaaa.   ",
"    .aaaaaaaaaaaaaaaaaaaaaa.    ",
"     ..aaaaaaaaaaaaaaaaaa..     ",
"       ..................       ",
"                                "};
